<?xml version="1.0" encoding="UTF-8"?>
<svg width="600" height="600" fill="none" version="1.1" viewBox="0 0 18 18" xmlns="http://www.w3.org/2000/svg">
<path d="m11.9 2.5c0-1.5-1.482-2.5-2.64-2.5-0.806 0-0.869 0.612-0.993 1.82-0.055 0.53-0.121 1.174-0.267 1.93-0.386 2.002-1.72 4.56-2.996 5.325v5.925c-4e-3 2.25 0.746 3 3.996 3h3.773c2.176 0 2.703-1.433 2.899-1.964l0.013-0.036c0.114-0.306 0.358-0.547 0.638-0.82 0.31-0.306 0.664-0.653 0.927-1.18 0.311-0.623 0.27-1.177 0.233-1.67-0.023-0.299-0.044-0.575 0.017-0.83 0.064-0.27 0.146-0.475 0.225-0.671 0.143-0.356 0.275-0.686 0.275-1.329 0-1.5-0.748-2.498-2.315-2.498h-4.185s0.4-3.002 0.4-4.502zm-10.4 5.5a1.5 1.5 0 0 0-1.5 1.5v7a1.5 1.5 0 0 0 3 0v-7a1.5 1.5 0 0 0-1.5-1.5z" clip-rule="evenodd" fill="#666" fill-rule="evenodd"/>
</svg>

