<?xml version="1.0" encoding="UTF-8"?>
<svg width="600" height="600" fill="none" version="1.1" viewBox="0 0 18 18" xmlns="http://www.w3.org/2000/svg">
<path d="m11.747 2.8421c0-1.4211-1.404-2.3684-2.5011-2.3684-0.76358 0-0.82326 0.57979-0.94074 1.7242-0.052105 0.50211-0.11463 1.1122-0.25295 1.8284-0.36568 1.8966-1.6295 4.32-2.8383 5.0447v5.6132c-0.00379 2.1316 0.70674 2.8421 3.7857 2.8421h3.5744c2.0615 0 2.5607-1.3576 2.7464-1.8606l0.01232-0.03411c0.108-0.2899 0.33916-0.51821 0.60442-0.77684 0.29368-0.2899 0.62905-0.61863 0.87821-1.1179 0.29463-0.59021 0.25579-1.1151 0.22074-1.5821-0.02179-0.28326-0.04168-0.54474 0.01611-0.78632 0.06063-0.25579 0.13832-0.45 0.21316-0.63568 0.13547-0.33726 0.26053-0.6499 0.26053-1.2591 0-1.4211-0.70863-2.3665-2.1932-2.3665h-3.9647s0.37895-2.844 0.37895-4.2651zm-9.8526 5.2105a1.4211 1.4211 0 0 0-1.4211 1.4211v6.6316a1.4211 1.4211 0 0 0 2.8421 0v-6.6316a1.4211 1.4211 0 0 0-1.4211-1.4211z" clip-rule="evenodd" fill="none" fill-rule="evenodd" stroke="#666" stroke-width=".94737"/>
</svg>

