<?xml version="1.0" encoding="UTF-8"?>
<svg width="600" height="600" fill="#000000" version="1.1" viewBox="-4 0 24 24" xmlns="http://www.w3.org/2000/svg" xmlns:cc="http://creativecommons.org/ns#" xmlns:dc="http://purl.org/dc/elements/1.1/" xmlns:rdf="http://www.w3.org/1999/02/22-rdf-syntax-ns#">
<title>edit</title>
<path d="m13.667 19.792v-4.8445l2.533-3.0045v8.826c0 1.7654-1.2351 3.2304-2.6911 3.2304h-14.818c-1.4884 0-2.6911-1.465-2.6911-3.2304v-17.539c0-1.7654 1.2037-3.2304 2.6911-3.2304h15.04v0.03726l-2.533 2.9673h-11.652c-0.53802 0-1.0132 0.56364-1.0132 1.2391v15.549c0 0.67662 0.4752 1.2018 1.0132 1.2018h13.109c0.53802 0 1.0132-0.52639 1.0132-1.2018zm2.4064-18.327 2.6911 3.192 1.2351-1.465-2.6911-3.192zm-9.4675 11.267 2.6597 3.192 8.5809-10.178-2.6597-3.192zm-1.8998 5.4081 3.6729-1.1645-2.6911-3.192z" fill="#666" stroke-width="1.1035"/>
<metadata>
<rdf:RDF>
<cc:Work rdf:about="">
<dc:title>edit</dc:title>
</cc:Work>
</rdf:RDF>
</metadata>
</svg>

